<?xml version="1.0" encoding="utf-8"?>
<!-- Generator: Adobe Illustrator 15.1.0, SVG Export Plug-In . SVG Version: 6.00 Build 0)  -->
<!DOCTYPE svg PUBLIC "-//W3C//DTD SVG 1.1//EN" "http://www.w3.org/Graphics/SVG/1.1/DTD/svg11.dtd">
<svg version="1.1" id="Warstwa_2" xmlns="http://www.w3.org/2000/svg" xmlns:xlink="http://www.w3.org/1999/xlink" x="0px" y="0px"
	 width="177.857px" height="53.332px" viewBox="0 0 177.857 53.332" enable-background="new 0 0 177.857 53.332"
	 xml:space="preserve">
<path fill="#005589" d="M44.719,9.104c9.62,1.394,19.304,2.516,29.023,2.636c9.704,0.118,19.463-0.792,28.812-3.388l0.098,0.538
	c-8.644,0.825-16.948,3.688-25.021,6.837c-4.043,1.593-8.042,3.301-12.054,4.991c-4.022,1.683-8.041,3.312-11.976,5.159
	c-7.895,3.636-15.629,7.634-23.544,11.283c-7.906,3.649-16.024,6.967-24.514,9.113c-0.253,0.064-0.51-0.089-0.573-0.342
	c-0.036-0.141-0.001-0.287,0.079-0.396c3.778-5.154,9.178-8.947,15.019-11.352c5.858-2.432,12.14-3.657,18.424-4.081
	c6.293-0.409,12.632-0.024,18.825,1.157c1.561,0.313,3.056,0.618,4.64,1.086c1.522,0.621,2.846,1.403,4.264,2.059
	c1.396,0.648,2.842,1.294,4.3,1.475c0.719,0.082,1.441-0.022,1.828-0.494c0.401-0.467,0.49-1.231,0.461-1.961l0.346,0.366
	c-0.618-0.071-1.147-0.282-1.617-0.353l-0.011-0.002c-0.208-0.031-0.351-0.224-0.319-0.432c0.019-0.129,0.104-0.234,0.214-0.287
	c4.432-2.082,9.288-2.383,13.907-3.291c1.173-0.184,2.328-0.494,3.631-0.382c0.655,0.069,1.279,0.364,1.785,0.717
	c0.515,0.353,0.97,0.745,1.422,1.135c0.443,0.389,0.91,0.781,1.327,1.241c0.421,0.438,0.786,1.007,1.069,1.482
	c0.146,0.224,0.283,0.336,0.521,0.436c0.234,0.094,0.513,0.157,0.793,0.21c0.563,0.103,1.159,0.175,1.732,0.238
	c2.303,0.201,4.66-0.23,6.981-0.628c2.331-0.413,4.646-0.939,7.033-1.217c4.729-0.479,9.471-0.812,14.214-1.04
	c4.744-0.219,9.492-0.355,14.239-0.405l7.119-0.044c1.185-0.012,2.38,0.022,3.548-0.046c1.166-0.08,2.357-0.224,3.396-0.725
	c0.515-0.251,0.958-0.62,1.275-1.095c0.328-0.468,0.53-1.04,0.929-1.53c0.398-0.498,1.014-0.771,1.607-0.878
	c0.6-0.116,1.204-0.124,1.802-0.102c1.195,0.053,2.374,0.235,3.544,0.445c1.168,0.217,2.336,0.469,3.462,0.869
	c0.56,0.204,1.116,0.442,1.606,0.8c0.487,0.334,0.905,0.932,0.777,1.566c-0.226,1.235-1.432,1.961-1.661,3.104
	c-0.017,0.291,0.211,0.523,0.466,0.654c0.257,0.139,0.543,0.223,0.828,0.292c0.576,0.135,1.167,0.202,1.757,0.254
	c1.182,0.098,2.368,0.117,3.555,0.12c-1.187,0.011-2.374,0.004-3.559-0.081c-0.591-0.046-1.184-0.105-1.766-0.235
	c-0.29-0.067-0.58-0.147-0.848-0.289c-0.263-0.128-0.527-0.385-0.513-0.716c0.064-0.633,0.516-1.086,0.836-1.572
	c0.337-0.479,0.694-0.977,0.787-1.549c0.109-0.583-0.269-1.113-0.741-1.437c-0.475-0.338-1.023-0.567-1.578-0.763
	c-1.115-0.382-2.279-0.621-3.443-0.824c-1.167-0.195-2.342-0.363-3.519-0.402c-0.586-0.015-1.177,0-1.742,0.117
	c-0.564,0.11-1.098,0.359-1.445,0.802c-0.353,0.438-0.551,1.01-0.896,1.521c-0.336,0.518-0.83,0.938-1.379,1.212
	c-2.26,1.035-4.739,0.804-7.081,0.883l-7.116,0.122c-4.742,0.104-9.483,0.232-14.219,0.478s-9.464,0.595-14.176,1.091
	c-2.328,0.278-4.647,0.813-6.986,1.237c-2.338,0.407-4.709,0.862-7.153,0.663c-0.605-0.065-1.188-0.133-1.793-0.24
	c-0.302-0.057-0.606-0.121-0.924-0.245c-0.319-0.112-0.658-0.396-0.825-0.68c-0.583-1.062-1.359-1.802-2.287-2.579
	c-0.896-0.749-1.786-1.573-2.844-1.677c-1.075-0.097-2.264,0.195-3.422,0.39c-4.649,0.923-9.477,1.265-13.701,3.279l-0.116-0.721
	c0.613,0.098,1.117,0.296,1.591,0.343l0.006,0.001c0.191,0.019,0.335,0.178,0.34,0.365c0.022,0.807-0.017,1.733-0.637,2.499
	c-0.308,0.374-0.763,0.609-1.202,0.713c-0.444,0.102-0.88,0.1-1.298,0.059c-1.667-0.206-3.127-0.876-4.563-1.529
	c-1.427-0.655-2.821-1.458-4.204-2.015c-1.422-0.411-3.002-0.738-4.513-1.032c-6.122-1.144-12.396-1.501-18.606-1.072
	c-6.201,0.441-12.383,1.677-18.106,4.078C14.749,37.481,9.48,41.107,5.808,46.096l-0.494-0.738
	c8.411-2.093,16.493-5.357,24.391-8.966c7.906-3.608,15.656-7.578,23.585-11.193c3.952-1.837,8.007-3.464,12.019-5.124
	c4.015-1.674,8.026-3.369,12.086-4.951c8.109-3.126,16.466-5.979,25.208-6.781c0.151-0.014,0.284,0.097,0.299,0.248
	c0.012,0.134-0.076,0.255-0.201,0.29c-9.42,2.604-19.243,3.418-28.965,3.18C63.997,11.832,54.323,10.603,44.719,9.104z"/>
</svg>
